<svg xmlns="http://www.w3.org/2000/svg" fill="none" class="NavBar_desktopSvg__ywPR0" viewBox="0 0 188 32"><path fill="currentColor" d="M16.001 0C7.163 0 0 7.163 0 16.001a15.94 15.94 0 0 0 3.484 9.967v-9.967c0-6.913 5.604-12.52 12.52-12.52 3.555 0 6.763 1.484 9.042 3.862L23.131 9.28A9.77 9.77 0 0 0 16 6.203c-5.292 0-9.603 4.197-9.789 9.442h12.945v2.726H6.205c0 2.892.002 7.697.005 10.283A15.94 15.94 0 0 0 16 32c8.839 0 16.001-7.163 16.001-16.001 0-8.836-7.165-15.999-16-15.999m11.234 18.59a1.577 1.577 0 1 1 0-3.157 1.577 1.577 0 1 1 0 3.156m25.362.691v-6.753h2.337v6.732c0 1.721.976 2.826 2.675 2.826 1.721 0 2.676-1.105 2.676-2.826v-6.732h2.358v6.754c0 3.123-1.91 4.97-5.034 4.97-3.056 0-5.012-1.89-5.012-4.97M65.3 12.527h2.23v1.635c.7-1.317 1.784-1.932 3.248-1.932.404 0 .87.042 1.36.19l-.212 2.272a3.8 3.8 0 0 0-1.253-.212c-1.656 0-3.037 1.084-3.037 3.631v5.863H65.3zm8.332 0h2.293v1.613c.659-1.169 1.975-1.91 3.632-1.91 2.336 0 4.503 1.53 4.503 4.779v6.965h-2.357v-6.307c0-2.146-1.148-3.27-2.74-3.27-1.764 0-2.995 1.36-2.995 3.313v6.267h-2.336zm12.703-3.102c0-.89.7-1.55 1.613-1.55.87 0 1.55.66 1.55 1.55 0 .913-.68 1.593-1.55 1.593-.912.002-1.613-.678-1.613-1.593m.404 14.55V12.526h2.336v11.447zm13.187-.68c-.85.637-2.039.955-3.166.955-2.528 0-3.76-1.466-3.76-4.25v-5.477h-2.293v-1.996h2.315V8.629h2.315v3.898h3.95v1.996h-3.95v5.52c0 1.381.49 2.064 1.763 2.064.744 0 1.403-.276 2.018-.637zm1.21-4.015v-6.753h2.336v6.732c0 1.721.977 2.826 2.676 2.826 1.72 0 2.676-1.105 2.676-2.826v-6.732h2.357v6.754c0 3.123-1.911 4.97-5.033 4.97-3.059 0-5.012-1.89-5.012-4.97m12.7-6.754h2.229v1.635c.701-1.317 1.785-1.932 3.249-1.932.404 0 .87.042 1.359.19l-.211 2.272a3.8 3.8 0 0 0-1.253-.212c-1.656 0-3.037 1.084-3.037 3.631v5.863h-2.336zm18.48 6.626h-8.943c.318 1.635 1.445 2.994 3.802 2.994 1.317 0 2.866-.509 3.888-1.231l.977 1.72c-1.041.809-2.887 1.593-4.948 1.593-4.311 0-6.139-2.995-6.139-6.01 0-3.399 2.337-5.968 5.842-5.968 3.208 0 5.606 2.146 5.606 5.777a8 8 0 0 1-.085 1.125m-8.943-1.911h6.668c-.19-1.828-1.528-2.973-3.248-2.973-1.785 0-3.08 1.21-3.42 2.973m10.618 5.587c0-.83.659-1.466 1.509-1.466.808 0 1.467.637 1.467 1.466a1.46 1.46 0 0 1-1.467 1.488c-.848-.003-1.509-.64-1.509-1.488m4.249-4.568c0-3.505 2.529-6.01 6.139-6.01 2.272 0 4.354 1.148 5.266 3.059l-1.932 1.083c-.701-1.188-1.91-1.996-3.313-1.996-2.188 0-3.802 1.678-3.802 3.867 0 2.146 1.571 3.823 3.717 3.823 1.359 0 2.74-.829 3.334-1.953l1.932 1.127c-.934 1.784-2.994 2.973-5.288 2.973-3.545-.003-6.053-2.51-6.053-5.973m12.51-.021c0-3.292 2.486-6.01 6.054-6.01s6.053 2.718 6.053 6.01c0 3.334-2.486 6.032-6.053 6.032-3.568 0-6.054-2.698-6.054-6.032m9.749 0c0-2.082-1.614-3.845-3.695-3.845-2.082 0-3.696 1.763-3.696 3.845 0 2.125 1.614 3.845 3.696 3.845s3.695-1.72 3.695-3.845m22.494-1.105v6.84h-2.336v-6.458c0-2.06-1.062-3.122-2.612-3.122-1.678 0-2.866 1.252-2.866 3.187v6.392h-2.336V17.56c0-1.996-1.02-3.165-2.633-3.165-1.657 0-2.888 1.23-2.888 3.23v6.35h-2.336V12.526h2.293v1.656c.659-1.188 1.954-1.975 3.463-1.975 1.445.022 2.868.723 3.527 2.104.786-1.274 2.379-2.104 4.142-2.104 2.712 0 4.582 1.85 4.582 4.927m-132.746.12h-6.374v6.72h-2.405v-10.01c0-3.384 2.71-5.953 6.108-5.953 1.625 0 3.358.668 4.49 1.433l-1.01 1.978c-.883-.635-1.997-1.146-3.551-1.146-2.099 0-3.63 1.661-3.63 3.831v.894h6.374zm134.067-4.252h1.286v.261h-.48v1.438h-.321v-1.438h-.485zm3.394 0v1.7h-.302v-1.035l-.615.768h-.093l-.611-.768v1.034h-.302v-1.699h.117l.839 1.048.851-1.048z"/></svg>